<svg id="Слой_1" data-name="Слой 1" xmlns="http://www.w3.org/2000/svg" width="251.88" height="62.17" viewBox="0 0 251.88 62.17"><defs><style>.cls-1{fill:#b92b22;}.cls-2{fill:#1b1b1b;}.cls-3{fill:#1e1e1e;}</style></defs><title>logo_ra_2</title><path class="cls-1" d="M430.85,568.33a1.53,1.53,0,0,1-.6-.12,1.5,1.5,0,0,1-.9-1.38V549.57H412.11a1.49,1.49,0,0,1-1.37-.9A1.51,1.51,0,0,1,411,547l6.82-7.21-6.82-7.2a1.51,1.51,0,0,1-.28-1.63,1.49,1.49,0,0,1,1.37-.9h17.27V512.83a1.5,1.5,0,0,1,2.53-1.09l7.2,6.82,7.21-6.82a1.5,1.5,0,0,1,2.53,1.09V530.1h17.26a1.5,1.5,0,0,1,1.5,1.5,1.52,1.52,0,0,1-.41,1l-6.81,7.2L467.2,547a1.5,1.5,0,0,1-.06,2.12,1.52,1.52,0,0,1-1,.41H448.82v17.26a1.5,1.5,0,0,1-2.53,1.1l-7.18-6.82-7.2,6.82A1.54,1.54,0,0,1,430.85,568.33Zm8.26-10.78a1.5,1.5,0,0,1,1,.41l5.71,5.39V548.07a1.51,1.51,0,0,1,1.5-1.5H462.6l-5.39-5.7a1.5,1.5,0,0,1,0-2.07l5.39-5.7H447.32a1.5,1.5,0,0,1-1.5-1.5V516.32l-5.71,5.39a1.49,1.49,0,0,1-2.06,0l-5.7-5.39V531.6a1.5,1.5,0,0,1-1.5,1.5H415.57l5.39,5.7a1.5,1.5,0,0,1,0,2.07l-5.39,5.7h15.28a1.51,1.51,0,0,1,1.5,1.5v15.32l5.7-5.39A1.51,1.51,0,0,1,439.11,557.55Z" transform="translate(-408 -508.75)"/><path class="cls-2" d="M455.36,570.92a1.5,1.5,0,0,1-1.5-1.5V556.11a1.5,1.5,0,0,1,1.5-1.5h13.31a1.5,1.5,0,0,1,0,3H456.86v11.78a1.5,1.5,0,0,1-1.47,1.53Zm-32.55,0a1.5,1.5,0,0,1-1.5-1.5V557.61H409.5a1.5,1.5,0,0,1,0-3h13.31a1.5,1.5,0,0,1,1.5,1.5v13.28a1.5,1.5,0,0,1-1.47,1.53Zm45.86-45.86H455.36a1.5,1.5,0,0,1-1.5-1.5V510.25a1.5,1.5,0,0,1,3,0v11.81h11.81a1.5,1.5,0,1,1,0,3Zm-45.86,0H409.5a1.5,1.5,0,0,1,0-3h11.81V510.25a1.5,1.5,0,0,1,3,0v13.31A1.5,1.5,0,0,1,422.81,525.06Z" transform="translate(-408 -508.75)"/><path class="cls-3" d="M490.35,516.53h10.92v2.88h-7.49v3.84h6.6v2.88h-6.6v4.32h7.49v2.88H490.35Z" transform="translate(-408 -508.75)"/><path class="cls-3" d="M502.76,530.67h1a4.49,4.49,0,0,0,.88-1.29,6.2,6.2,0,0,0,.46-1.51,12.48,12.48,0,0,0,.18-1.86c0-.69,0-1.46,0-2.33v-3.07h9.45v10.06h1.61v5.66h-2.9v-3h-7.78v3h-2.9Zm8.76,0v-7.39h-3.17v.81a25.2,25.2,0,0,1-.24,3.69,9.76,9.76,0,0,1-.89,2.89Z" transform="translate(-408 -508.75)"/><path class="cls-3" d="M518.6,520.61h2.88v8.55l4.82-8.55h3.14v12.72h-2.88v-8.54l-4.82,8.54H518.6Z" transform="translate(-408 -508.75)"/><path class="cls-3" d="M532.52,520.61h3.24v4.9h4.36v-4.9h3.24v12.72h-3.24v-5.16h-4.36v5.16h-3.24Z" transform="translate(-408 -508.75)"/><path class="cls-3" d="M546.44,520.61h3.24V525h1a5.74,5.74,0,0,1,3.92,1.1,4,4,0,0,1,1.22,3.1,3.94,3.94,0,0,1-1.22,3.08,5.79,5.79,0,0,1-3.92,1.09h-4.24Zm4.24,10.23a2.52,2.52,0,0,0,1.64-.4,1.69,1.69,0,0,0,.43-1.28,1.73,1.73,0,0,0-.43-1.31,2.47,2.47,0,0,0-1.64-.4h-1v3.39Zm6.24-10.23h3.24v12.72h-3.24Z" transform="translate(-408 -508.75)"/><path class="cls-3" d="M563.24,520.61h2.88v8.55l4.82-8.55h3.14v12.72H571.2v-8.54l-4.82,8.54h-3.14Zm5.42-1.05a4,4,0,0,1-3-.92,3.41,3.41,0,0,1-.91-2.52h2.62a2,2,0,0,0,.31,1.26,1.44,1.44,0,0,0,1.88,0,2,2,0,0,0,.31-1.26h2.61a3.41,3.41,0,0,1-.9,2.52A4,4,0,0,1,568.66,519.56Z" transform="translate(-408 -508.75)"/><path class="cls-3" d="M583.39,520.61H594v12.72h-3.24V523.28h-4.13v10.05h-3.24Z" transform="translate(-408 -508.75)"/><path class="cls-3" d="M602.14,533.55a5.31,5.31,0,0,1-4-1.53,6,6,0,0,1-1.48-4.38v-1.58a6.87,6.87,0,0,1,.39-2.38,4.85,4.85,0,0,1,1.09-1.78,4.66,4.66,0,0,1,1.73-1.12,7.09,7.09,0,0,1,4.58,0,4.66,4.66,0,0,1,1.73,1.12,4.85,4.85,0,0,1,1.09,1.78,6.87,6.87,0,0,1,.38,2.38v1.58a6,6,0,0,1-1.47,4.38A5.34,5.34,0,0,1,602.14,533.55Zm0-2.76a2.06,2.06,0,0,0,1.67-.71,3.87,3.87,0,0,0,.59-2.44v-1.58a3.38,3.38,0,0,0-.59-2.23,2.42,2.42,0,0,0-3.34,0,3.38,3.38,0,0,0-.59,2.23v1.58a3.87,3.87,0,0,0,.59,2.44A2.06,2.06,0,0,0,602.14,530.79Z" transform="translate(-408 -508.75)"/><path class="cls-3" d="M610.27,520.61h3v2a4.1,4.1,0,0,1,1.31-1.54,3.67,3.67,0,0,1,2.2-.59,4.13,4.13,0,0,1,3.24,1.32,6.35,6.35,0,0,1,1.17,4.27v1.58a10.48,10.48,0,0,1-.3,2.7,5,5,0,0,1-.87,1.84,3.34,3.34,0,0,1-1.39,1,4.92,4.92,0,0,1-1.85.33,3.5,3.5,0,0,1-2-.54,3.74,3.74,0,0,1-1.28-1.45v6.57h-3.24Zm5.5,10.18a2,2,0,0,0,1.6-.71,3.88,3.88,0,0,0,.58-2.44v-1.58a3.24,3.24,0,0,0-.58-2.17,2.05,2.05,0,0,0-1.6-.66,2.12,2.12,0,0,0-1.67.66,3.24,3.24,0,0,0-.59,2.17v1.58a3.87,3.87,0,0,0,.59,2.44A2.06,2.06,0,0,0,615.77,530.79Z" transform="translate(-408 -508.75)"/><path class="cls-3" d="M626.33,523.28h-3.77v-2.67h10.75v2.67h-3.76v10.05h-3.22Z" transform="translate(-408 -508.75)"/><path class="cls-3" d="M638.16,533.48a3.41,3.41,0,0,1-3.72-3.8,3.67,3.67,0,0,1,1.13-2.91,5,5,0,0,1,3.38-1h2.64V525a1.64,1.64,0,0,0-1.94-2,2.15,2.15,0,0,0-1.4.34,1.26,1.26,0,0,0-.45.93H635a4,4,0,0,1,1.14-2.9,5.13,5.13,0,0,1,3.59-1,5.31,5.31,0,0,1,3.77,1.1,4.65,4.65,0,0,1,1.15,3.5v8.33h-2.81v-2a6.28,6.28,0,0,1-.55.83,3.21,3.21,0,0,1-.74.68,3.75,3.75,0,0,1-1,.46A5,5,0,0,1,638.16,533.48Zm1-2.6a2.44,2.44,0,0,0,1.81-.64,2.61,2.61,0,0,0,.63-1.88v-.43h-2.28a1.92,1.92,0,0,0-1.4.4,1.49,1.49,0,0,0-.4,1.09C637.51,530.4,638.06,530.88,639.15,530.88Z" transform="translate(-408 -508.75)"/><path class="cls-3" d="M646.56,530.62a2.23,2.23,0,0,0,1-.54,2.42,2.42,0,0,0,.6-1,5.92,5.92,0,0,0,.3-1.38,16.77,16.77,0,0,0,.08-1.83v-5.31h9.77v12.72h-3.24V523.28H651.6v2.64a19,19,0,0,1-.26,3.3,6.87,6.87,0,0,1-.87,2.38,4,4,0,0,1-1.56,1.46,5.2,5.2,0,0,1-2.35.49Z" transform="translate(-408 -508.75)"/><path class="cls-3" d="M494.86,563.55a6,6,0,0,1-2.22-.39A4.29,4.29,0,0,1,491,562a5,5,0,0,1-1.08-1.86,7.49,7.49,0,0,1-.39-2.52v-1.58a6.87,6.87,0,0,1,.39-2.38A4.83,4.83,0,0,1,491,551.9a4.59,4.59,0,0,1,1.69-1.12,6,6,0,0,1,2.22-.38,6.45,6.45,0,0,1,2.16.33,4.67,4.67,0,0,1,1.58.94,4,4,0,0,1,1,1.41,5.39,5.39,0,0,1,.4,1.76h-3.27a2.34,2.34,0,0,0-.55-1.19,1.66,1.66,0,0,0-1.32-.49,1.93,1.93,0,0,0-1.56.67,3.45,3.45,0,0,0-.58,2.23v1.58a4,4,0,0,0,.58,2.44,1.9,1.9,0,0,0,1.56.71,1.7,1.7,0,0,0,1.32-.49,2.38,2.38,0,0,0,.55-1.19H500a5.41,5.41,0,0,1-.44,1.79,4.46,4.46,0,0,1-1,1.4,4.33,4.33,0,0,1-1.56.92A6.39,6.39,0,0,1,494.86,563.55Z" transform="translate(-408 -508.75)"/><path class="cls-3" d="M507.46,563.55a5.31,5.31,0,0,1-4-1.53,6,6,0,0,1-1.48-4.38v-1.58a6.87,6.87,0,0,1,.39-2.38,4.85,4.85,0,0,1,1.09-1.78,4.66,4.66,0,0,1,1.73-1.12,7.09,7.09,0,0,1,4.58,0,4.66,4.66,0,0,1,1.73,1.12,4.85,4.85,0,0,1,1.09,1.78,6.87,6.87,0,0,1,.39,2.38v1.58a6,6,0,0,1-1.48,4.38A5.31,5.31,0,0,1,507.46,563.55Zm0-2.76a2.06,2.06,0,0,0,1.67-.71,3.87,3.87,0,0,0,.59-2.44v-1.58a3.38,3.38,0,0,0-.59-2.23,2.42,2.42,0,0,0-3.34,0,3.38,3.38,0,0,0-.59,2.23v1.58a3.87,3.87,0,0,0,.59,2.44A2.06,2.06,0,0,0,507.46,560.79Z" transform="translate(-408 -508.75)"/><path class="cls-3" d="M515.6,550.61h8.28v2.67h-5v10.05H515.6Z" transform="translate(-408 -508.75)"/><path class="cls-3" d="M524.64,560.62a2.18,2.18,0,0,0,1-.54,2.42,2.42,0,0,0,.6-1,5,5,0,0,0,.3-1.38,16.58,16.58,0,0,0,.09-1.83v-5.31h9.76v12.72h-3.24V553.28h-3.48v2.64a18.11,18.11,0,0,1-.26,3.3,6.87,6.87,0,0,1-.86,2.38,4,4,0,0,1-1.56,1.46,5.25,5.25,0,0,1-2.36.49Z" transform="translate(-408 -508.75)"/><path class="cls-3" d="M542.52,563.48a3.75,3.75,0,0,1-2.72-1,3.79,3.79,0,0,1-1-2.84,3.67,3.67,0,0,1,1.13-2.91,5,5,0,0,1,3.39-1H546V555a1.65,1.65,0,0,0-2-2,2.15,2.15,0,0,0-1.4.34,1.3,1.3,0,0,0-.45.93h-2.8a3.93,3.93,0,0,1,1.14-2.9,5.09,5.09,0,0,1,3.58-1,5.31,5.31,0,0,1,3.77,1.1A4.65,4.65,0,0,1,549,555v8.33h-2.8v-2a6.36,6.36,0,0,1-.56.83,3,3,0,0,1-.74.68,3.61,3.61,0,0,1-1,.46A5,5,0,0,1,542.52,563.48Zm1-2.6a2.42,2.42,0,0,0,1.81-.64,2.61,2.61,0,0,0,.64-1.88v-.43h-2.28a2,2,0,0,0-1.41.4,1.48,1.48,0,0,0-.39,1.09C541.88,560.4,542.42,560.88,543.51,560.88Z" transform="translate(-408 -508.75)"/><path class="cls-3" d="M552,550.61h3.24v10.06h3.09V550.61h3.22v10.06h3.09V550.61h3.24v12.72H552Z" transform="translate(-408 -508.75)"/><path class="cls-3" d="M575.86,563.55a6,6,0,0,1-2.22-.39A4.22,4.22,0,0,1,572,562a5,5,0,0,1-1.08-1.86,7.49,7.49,0,0,1-.39-2.52v-1.58a5.8,5.8,0,0,1,1.43-4.19,5.72,5.72,0,0,1,7.66,0,5.79,5.79,0,0,1,1.43,4.2v1.74h-7.28a4.06,4.06,0,0,0,.59,2.47,1.92,1.92,0,0,0,1.55.68,1.67,1.67,0,0,0,1.2-.4,1.91,1.91,0,0,0,.53-1h3.16a4.6,4.6,0,0,1-1.48,2.87A5,5,0,0,1,575.86,563.55Zm0-10.56a2,2,0,0,0-1.51.56,3.3,3.3,0,0,0-.6,2.05H578a3.3,3.3,0,0,0-.6-2.05A2,2,0,0,0,575.83,553Z" transform="translate(-408 -508.75)"/><path class="cls-3" d="M583.63,550.61h3.25v4.9h4.36v-4.9h3.24v12.72h-3.24v-5.16h-4.36v5.16h-3.25Z" transform="translate(-408 -508.75)"/><path class="cls-3" d="M597.55,550.61h2.88v8.55l4.83-8.55h3.14v12.72h-2.88v-8.54l-4.82,8.54h-3.15Z" transform="translate(-408 -508.75)"/><path class="cls-3" d="M611.47,550.61h2.88v8.55l4.83-8.55h3.14v12.72h-2.88v-8.54l-4.82,8.54h-3.15Zm5.43-1.05a4,4,0,0,1-3-.92,3.41,3.41,0,0,1-.9-2.52h2.62a1.9,1.9,0,0,0,.31,1.26,1.17,1.17,0,0,0,.94.35,1.15,1.15,0,0,0,.93-.35,1.89,1.89,0,0,0,.32-1.26h2.61a3.41,3.41,0,0,1-.9,2.52A4,4,0,0,1,616.9,549.56Z" transform="translate(-408 -508.75)"/><path class="cls-3" d="M633.19,560.67a5.57,5.57,0,0,0,2.18-.31,1.52,1.52,0,0,0,.82-.82l.17-.41-6-12.6h3.67l3.89,8.81,3.4-8.81h3.58l-5.35,13a10.68,10.68,0,0,1-1,2,4.16,4.16,0,0,1-1.23,1.24,4.68,4.68,0,0,1-1.72.62,15.17,15.17,0,0,1-2.44.17Z" transform="translate(-408 -508.75)"/><path class="cls-3" d="M647.19,546.53h6.09a7.14,7.14,0,0,1,5,1.51,6,6,0,0,1,0,8.19,7.09,7.09,0,0,1-5,1.51h-2.66v5.59h-3.43Zm6.09,8.33a3.56,3.56,0,0,0,2.44-.68,3.23,3.23,0,0,0,0-4.09,3.56,3.56,0,0,0-2.44-.68h-2.66v5.45Z" transform="translate(-408 -508.75)"/></svg>