<svg id="_1" data-name="1" xmlns="http://www.w3.org/2000/svg" width="264" height="85.48" viewBox="0 0 264 85.48"><defs><style>.cls-1{fill:#b92b22;}.cls-2{fill:#fff;}</style></defs><title>logo_ra_4</title><path class="cls-1" d="M210,200.28a2.06,2.06,0,0,1-1.42-.56l-9.91-9.37-9.91,9.37a2.06,2.06,0,0,1-3.48-1.5V174.49H161.51A2.06,2.06,0,0,1,160,171l9.36-9.91L160,151.19a2.06,2.06,0,0,1,1.5-3.48h23.73V124a2.06,2.06,0,0,1,3.48-1.5l9.91,9.36,9.91-9.36A2.06,2.06,0,0,1,212,124v23.73h23.73a2.06,2.06,0,0,1,1.5,3.48l-9.37,9.91,9.37,9.91a2.07,2.07,0,0,1-1.5,3.48H212v23.73a2.05,2.05,0,0,1-1.25,1.89A1.93,1.93,0,0,1,210,200.28Zm-11.33-14.83A2,2,0,0,1,200,186l7.85,7.41v-21a2.07,2.07,0,0,1,2.07-2.07h21l-7.41-7.85a2.06,2.06,0,0,1,0-2.83l7.41-7.85H210a2.07,2.07,0,0,1-2.07-2.06v-21L200,136.18a2.06,2.06,0,0,1-2.83,0l-7.85-7.42v21a2.06,2.06,0,0,1-2.06,2.06h-21l7.42,7.85a2.06,2.06,0,0,1,0,2.83l-7.42,7.85h21a2.07,2.07,0,0,1,2.06,2.07v21l7.85-7.41A2.06,2.06,0,0,1,198.63,185.45Z" transform="translate(-155.89 -118.36)"/><path class="cls-2" d="M258.8,132.66h10v2.64H262v3.52H268v2.64H262v4h6.86v2.64h-10Z" transform="translate(-155.89 -118.36)"/><path class="cls-2" d="M270.83,145.62h.88a4.12,4.12,0,0,0,.82-1.18,5.71,5.71,0,0,0,.42-1.38,13.84,13.84,0,0,0,.16-1.71q0-.94,0-2.13V136.4h8.67v9.22h1.47v5.19h-2.66v-2.75H273.5v2.75h-2.67Zm8,0v-6.77H276v.74a22.45,22.45,0,0,1-.22,3.38,9,9,0,0,1-.81,2.65Z" transform="translate(-155.89 -118.36)"/><path class="cls-2" d="M286,136.4h2.64v7.83l4.42-7.83H296v11.66h-2.64v-7.83l-4.43,7.83H286Z" transform="translate(-155.89 -118.36)"/><path class="cls-2" d="M299.43,136.4h3v4.49h4V136.4h3v11.66h-3v-4.73h-4v4.73h-3Z" transform="translate(-155.89 -118.36)"/><path class="cls-2" d="M312.85,136.4h3v4h.92a5.24,5.24,0,0,1,3.59,1,4.14,4.14,0,0,1,0,5.66,5.29,5.29,0,0,1-3.59,1h-3.89Zm3.89,9.37a2.29,2.29,0,0,0,1.5-.36,1.54,1.54,0,0,0,.39-1.18,1.56,1.56,0,0,0-.39-1.19,2.23,2.23,0,0,0-1.5-.37h-.92v3.1Zm5.72-9.37h3v11.66h-3Z" transform="translate(-155.89 -118.36)"/><path class="cls-2" d="M328.91,136.4h2.64v7.83L336,136.4h2.88v11.66h-2.64v-7.83l-4.42,7.83h-2.88Zm5-1a3.71,3.71,0,0,1-2.72-.84,3.15,3.15,0,0,1-.82-2.31h2.39a1.78,1.78,0,0,0,.29,1.16,1.35,1.35,0,0,0,1.72,0,1.79,1.79,0,0,0,.28-1.16h2.4a3.15,3.15,0,0,1-.82,2.31A3.71,3.71,0,0,1,333.88,135.44Z" transform="translate(-155.89 -118.36)"/><path class="cls-2" d="M348.71,136.4h2.75v1.83a3.76,3.76,0,0,1,1.19-1.42,3.43,3.43,0,0,1,2-.54,3.8,3.8,0,0,1,3,1.21,5.81,5.81,0,0,1,1.07,3.92v1.45a9.75,9.75,0,0,1-.27,2.47,4.5,4.5,0,0,1-.8,1.69,3,3,0,0,1-1.28,1,4.5,4.5,0,0,1-1.69.3,3.25,3.25,0,0,1-1.83-.49,3.39,3.39,0,0,1-1.17-1.34v6h-3Zm5,9.33a1.79,1.79,0,0,0,1.47-.65,3.52,3.52,0,0,0,.53-2.23V141.4a3,3,0,0,0-.53-2,1.85,1.85,0,0,0-1.47-.61,1.92,1.92,0,0,0-1.53.61,2.94,2.94,0,0,0-.54,2v1.45a3.52,3.52,0,0,0,.54,2.23A1.86,1.86,0,0,0,353.74,145.73Z" transform="translate(-155.89 -118.36)"/><path class="cls-2" d="M366.33,148.26a5.74,5.74,0,0,1-2-.35,4,4,0,0,1-1.55-1,4.68,4.68,0,0,1-1-1.7,6.92,6.92,0,0,1-.35-2.31V141.4a5.26,5.26,0,0,1,1.31-3.84,5.24,5.24,0,0,1,7,0A5.29,5.29,0,0,1,371,141.4V143h-6.66a3.63,3.63,0,0,0,.54,2.26,1.72,1.72,0,0,0,1.42.63,1.5,1.5,0,0,0,1.09-.37,1.68,1.68,0,0,0,.49-.88h2.9a4.18,4.18,0,0,1-1.36,2.63A4.56,4.56,0,0,1,366.33,148.26Zm0-9.68a1.77,1.77,0,0,0-1.38.52,2.91,2.91,0,0,0-.55,1.88h3.87a3,3,0,0,0-.55-1.88A1.8,1.8,0,0,0,366.3,138.58Z" transform="translate(-155.89 -118.36)"/><path class="cls-2" d="M378.64,148.26a5.73,5.73,0,0,1-2-.35,4,4,0,0,1-1.55-1,4.68,4.68,0,0,1-1-1.7,6.92,6.92,0,0,1-.35-2.31V141.4a5.26,5.26,0,0,1,1.31-3.84,5.24,5.24,0,0,1,7,0,5.33,5.33,0,0,1,1.31,3.85V143h-6.66a3.71,3.71,0,0,0,.53,2.26,1.75,1.75,0,0,0,1.42.63,1.52,1.52,0,0,0,1.1-.37,1.75,1.75,0,0,0,.49-.88h2.9a4.23,4.23,0,0,1-1.36,2.63A4.57,4.57,0,0,1,378.64,148.26Zm0-9.68a1.77,1.77,0,0,0-1.38.52,2.91,2.91,0,0,0-.55,1.88h3.87a3,3,0,0,0-.55-1.88A1.81,1.81,0,0,0,378.62,138.58Z" transform="translate(-155.89 -118.36)"/><path class="cls-2" d="M391,148.26a5.69,5.69,0,0,1-2-.35,4,4,0,0,1-1.55-1,4.68,4.68,0,0,1-1-1.7,6.92,6.92,0,0,1-.35-2.31V141.4a6.23,6.23,0,0,1,.35-2.18,4.5,4.5,0,0,1,1-1.64,4,4,0,0,1,1.55-1,5.48,5.48,0,0,1,2-.35,6,6,0,0,1,2,.3,4.33,4.33,0,0,1,1.45.86,3.85,3.85,0,0,1,.92,1.3,4.73,4.73,0,0,1,.36,1.61h-3a2.17,2.17,0,0,0-.51-1.09,1.51,1.51,0,0,0-1.21-.45,1.78,1.78,0,0,0-1.43.61,3.16,3.16,0,0,0-.52,2.05v1.45a3.6,3.6,0,0,0,.52,2.23,1.73,1.73,0,0,0,1.43.65,1.51,1.51,0,0,0,1.21-.45,2.17,2.17,0,0,0,.51-1.09h3a4.76,4.76,0,0,1-.4,1.64,4,4,0,0,1-.91,1.29,4,4,0,0,1-1.43.84A5.87,5.87,0,0,1,391,148.26Z" transform="translate(-155.89 -118.36)"/><path class="cls-2" d="M401.17,138.85h-3.46V136.4h9.86v2.45h-3.45v9.21h-2.95Z" transform="translate(-155.89 -118.36)"/><path class="cls-2" d="M409.88,136.4h2.75v1.83a3.7,3.7,0,0,1,1.2-1.42,3.39,3.39,0,0,1,2-.54,3.8,3.8,0,0,1,3,1.21,5.81,5.81,0,0,1,1.08,3.92v1.45a9.28,9.28,0,0,1-.28,2.47,4.5,4.5,0,0,1-.8,1.69,3,3,0,0,1-1.27,1,4.56,4.56,0,0,1-1.7.3,3.19,3.19,0,0,1-1.82-.49,3.39,3.39,0,0,1-1.17-1.34v6h-3Zm5,9.33a1.78,1.78,0,0,0,1.46-.65,3.52,3.52,0,0,0,.54-2.23V141.4a2.94,2.94,0,0,0-.54-2,1.85,1.85,0,0,0-1.46-.61,1.92,1.92,0,0,0-1.53.61,2.94,2.94,0,0,0-.54,2v1.45a3.52,3.52,0,0,0,.54,2.23A1.86,1.86,0,0,0,414.92,145.73Z" transform="translate(-155.89 -118.36)"/><path class="cls-2" d="M262.94,170.26a5.74,5.74,0,0,1-2-.35,4.18,4.18,0,0,1-1.55-1,5,5,0,0,1-1-1.7,7.19,7.19,0,0,1-.35-2.31V163.4a6.43,6.43,0,0,1,.35-2.18,4.8,4.8,0,0,1,1-1.64,4.11,4.11,0,0,1,1.55-1,5.53,5.53,0,0,1,2-.36,6,6,0,0,1,2,.31,4.26,4.26,0,0,1,1.45.86,3.82,3.82,0,0,1,.91,1.3,4.5,4.5,0,0,1,.36,1.6h-3a2.23,2.23,0,0,0-.5-1.09,1.54,1.54,0,0,0-1.21-.45,1.79,1.79,0,0,0-1.43.62,3.15,3.15,0,0,0-.53,2.05v1.45a3.61,3.61,0,0,0,.53,2.23,1.75,1.75,0,0,0,1.43.65,1.54,1.54,0,0,0,1.21-.45,2.19,2.19,0,0,0,.5-1.09h3a4.76,4.76,0,0,1-.39,1.64,3.91,3.91,0,0,1-2.34,2.13A5.91,5.91,0,0,1,262.94,170.26Z" transform="translate(-155.89 -118.36)"/><path class="cls-2" d="M275.15,170.26a4.9,4.9,0,0,1-3.69-1.4,5.54,5.54,0,0,1-1.35-4V163.4a6.43,6.43,0,0,1,.35-2.18,4.52,4.52,0,0,1,1-1.64,4.11,4.11,0,0,1,1.59-1,5.78,5.78,0,0,1,2.1-.36,5.86,5.86,0,0,1,2.1.36,4.15,4.15,0,0,1,1.58,1,4.52,4.52,0,0,1,1,1.64,6.19,6.19,0,0,1,.35,2.18v1.45a5.54,5.54,0,0,1-1.35,4A4.89,4.89,0,0,1,275.15,170.26Zm0-2.53a1.85,1.85,0,0,0,1.52-.65,3.54,3.54,0,0,0,.54-2.23V163.4a3.09,3.09,0,0,0-.54-2.05,1.9,1.9,0,0,0-1.52-.62,1.93,1.93,0,0,0-1.53.62,3.09,3.09,0,0,0-.54,2.05v1.45a3.54,3.54,0,0,0,.54,2.23A1.89,1.89,0,0,0,275.15,167.73Z" transform="translate(-155.89 -118.36)"/><path class="cls-2" d="M283.26,158.4h7.59v2.44h-4.62v9.22h-3Z" transform="translate(-155.89 -118.36)"/><path class="cls-2" d="M292.22,167.57a2,2,0,0,0,.92-.49,2.4,2.4,0,0,0,.55-.87A5.14,5.14,0,0,0,294,165a14.3,14.3,0,0,0,.08-1.69V158.4H303v11.66h-3v-9.22h-3.18v2.42a16.85,16.85,0,0,1-.25,3,6.21,6.21,0,0,1-.79,2.19,3.65,3.65,0,0,1-1.43,1.33,4.68,4.68,0,0,1-2.15.45Z" transform="translate(-155.89 -118.36)"/><path class="cls-2" d="M309.26,170.19a3.13,3.13,0,0,1-3.41-3.47,3.39,3.39,0,0,1,1-2.68,4.61,4.61,0,0,1,3.1-.91h2.42v-.68a2,2,0,0,0-.41-1.4,1.9,1.9,0,0,0-1.37-.4,2.07,2.07,0,0,0-1.29.3,1.22,1.22,0,0,0-.41.86h-2.57a3.65,3.65,0,0,1,1-2.66,4.72,4.72,0,0,1,3.29-1,4.88,4.88,0,0,1,3.46,1,4.28,4.28,0,0,1,1.05,3.21v7.63h-2.57v-1.83a5.6,5.6,0,0,1-.51.76,2.55,2.55,0,0,1-.68.63,3.11,3.11,0,0,1-.92.42A4.63,4.63,0,0,1,309.26,170.19Zm.91-2.37a2.22,2.22,0,0,0,1.66-.6,2.36,2.36,0,0,0,.58-1.71v-.4h-2.09a1.81,1.81,0,0,0-1.29.36,1.39,1.39,0,0,0-.36,1C308.67,167.37,309.17,167.82,310.17,167.82Z" transform="translate(-155.89 -118.36)"/><path class="cls-2" d="M318.57,158.4h3v9.22h2.84V158.4h2.94v9.22h2.84V158.4h3v11.66H318.57Z" transform="translate(-155.89 -118.36)"/><path class="cls-2" d="M341.14,170.26a5.74,5.74,0,0,1-2-.35,4.18,4.18,0,0,1-1.55-1,5,5,0,0,1-1-1.7,7.19,7.19,0,0,1-.35-2.31V163.4a5.3,5.3,0,0,1,1.31-3.84A4.62,4.62,0,0,1,341,158.2a4.69,4.69,0,0,1,3.51,1.35,5.31,5.31,0,0,1,1.31,3.85V165h-6.67a3.63,3.63,0,0,0,.54,2.26,1.73,1.73,0,0,0,1.42.62,1.53,1.53,0,0,0,1.1-.36,1.7,1.7,0,0,0,.48-.88h2.91a4.27,4.27,0,0,1-1.37,2.63A4.56,4.56,0,0,1,341.14,170.26Zm0-9.68a1.78,1.78,0,0,0-1.39.52,3,3,0,0,0-.55,1.88h3.87a3,3,0,0,0-.55-1.88A1.77,1.77,0,0,0,341.12,160.58Z" transform="translate(-155.89 -118.36)"/><path class="cls-2" d="M348.93,158.4h3v4.49h4V158.4h3v11.66h-3v-4.73h-4v4.73h-3Z" transform="translate(-155.89 -118.36)"/><path class="cls-2" d="M362.34,158.4H365v7.83l4.43-7.83h2.88v11.66h-2.64v-7.83l-4.42,7.83h-2.89Z" transform="translate(-155.89 -118.36)"/><path class="cls-2" d="M375.76,158.4h2.64v7.83l4.42-7.83h2.88v11.66h-2.63v-7.83l-4.43,7.83h-2.88Zm5-1a3.68,3.68,0,0,1-2.71-.83,3.16,3.16,0,0,1-.83-2.31h2.4a1.68,1.68,0,0,0,.29,1.15,1.05,1.05,0,0,0,.85.32,1.07,1.07,0,0,0,.86-.32,1.73,1.73,0,0,0,.29-1.15h2.4a3.16,3.16,0,0,1-.83,2.31A3.69,3.69,0,0,1,380.73,157.43Z" transform="translate(-155.89 -118.36)"/><path class="cls-2" d="M221,203.84a2.07,2.07,0,0,1-2.06-2.07v-18.3a2.06,2.06,0,0,1,2.06-2.06h18.3a2.06,2.06,0,1,1,0,4.12H223.06v16.24A2.07,2.07,0,0,1,221,203.84Zm-44.75,0a2.07,2.07,0,0,1-2.06-2.07V185.53H158a2.06,2.06,0,0,1,0-4.12h18.3a2.07,2.07,0,0,1,2.07,2.06v18.3A2.07,2.07,0,0,1,176.25,203.84Zm63.05-63.05H221a2.07,2.07,0,0,1-2.06-2.07v-18.3a2.06,2.06,0,0,1,4.12,0v16.24H239.3a2.07,2.07,0,1,1,0,4.13Zm-63.05,0H158a2.07,2.07,0,0,1,0-4.13h16.24V120.42a2.07,2.07,0,0,1,4.13,0v18.3A2.07,2.07,0,0,1,176.25,140.79Z" transform="translate(-155.89 -118.36)"/><path class="cls-2" d="M260.3,188.94a2.74,2.74,0,0,0,1.24-.23,1.18,1.18,0,0,0,.57-.62l.13-.29-3.47-7.45h1.42l2.69,6,2.48-6h1.36l-3.29,7.74a5.11,5.11,0,0,1-.49.94,2.2,2.2,0,0,1-.62.6,2.6,2.6,0,0,1-.85.33,5.54,5.54,0,0,1-1.17.11Z" transform="translate(-155.89 -118.36)"/><path class="cls-2" d="M266.59,188.9h.61a1.92,1.92,0,0,0,.49-.72,4.45,4.45,0,0,0,.27-1,8.46,8.46,0,0,0,.11-1.19c0-.42,0-.86,0-1.32v-2h5v6.22h.9v2.79h-1.17V190h-5.06v1.72h-1.19Zm5.3,0v-5.14h-2.6v1a18.52,18.52,0,0,1-.13,2.36,4.82,4.82,0,0,1-.56,1.81Z" transform="translate(-155.89 -118.36)"/><path class="cls-2" d="M275.64,182.68h1.27l2.42,4.55,2.4-4.55h1.2V190h-1.17v-5.29l-1.9,3.64h-1.15l-1.9-3.64V190h-1.17Z" transform="translate(-155.89 -118.36)"/><path class="cls-2" d="M285.24,191.65a3.11,3.11,0,0,0,.66-.07,1.37,1.37,0,0,0,.5-.24,1.82,1.82,0,0,0,.39-.46,4.72,4.72,0,0,0,.34-.74l-2.94-7.46h1.36l2.19,5.92,2-5.92H291l-2.71,7.46a9.64,9.64,0,0,1-.56,1.28,2.56,2.56,0,0,1-.62.79,1.89,1.89,0,0,1-.8.4,4.79,4.79,0,0,1-1.08.11Z" transform="translate(-155.89 -118.36)"/><path class="cls-2" d="M292.28,182.68h1.08v1.21a2.53,2.53,0,0,1,.85-.95,2.43,2.43,0,0,1,1.31-.34,2.61,2.61,0,0,1,1.06.21,2.13,2.13,0,0,1,.83.6,2.73,2.73,0,0,1,.55,1,4.26,4.26,0,0,1,.2,1.35v1a4.75,4.75,0,0,1-.2,1.43,3,3,0,0,1-.55,1,2.19,2.19,0,0,1-.83.62,2.61,2.61,0,0,1-1.06.21,2.16,2.16,0,0,1-2-1.23v3.88h-1.22Zm3,6.31a1.51,1.51,0,0,0,1.21-.53,2.44,2.44,0,0,0,.47-1.68v-1a2.2,2.2,0,0,0-.47-1.55,1.53,1.53,0,0,0-1.21-.52,1.67,1.67,0,0,0-1.3.52,2.24,2.24,0,0,0-.47,1.55v1a2.5,2.5,0,0,0,.47,1.68A1.64,1.64,0,0,0,295.27,189Z" transform="translate(-155.89 -118.36)"/><path class="cls-2" d="M301.43,183.76h-2.32v-1.08H305v1.08h-2.33V190h-1.21Z" transform="translate(-155.89 -118.36)"/><path class="cls-2" d="M308.84,190.07a3.29,3.29,0,0,1-1.2-.22,2.37,2.37,0,0,1-.92-.63,3,3,0,0,1-.59-1,4.36,4.36,0,0,1-.21-1.41v-1a3.91,3.91,0,0,1,.21-1.33,2.87,2.87,0,0,1,.59-1,2.45,2.45,0,0,1,.92-.62,3.29,3.29,0,0,1,1.2-.21,3.51,3.51,0,0,1,1.05.15,2.74,2.74,0,0,1,.85.44,2.37,2.37,0,0,1,.61.69,2.26,2.26,0,0,1,.28.9h-1.22a1.47,1.47,0,0,0-.48-.78,1.85,1.85,0,0,0-2.34.19,2.26,2.26,0,0,0-.47,1.56v1a2.5,2.5,0,0,0,.47,1.68,1.81,1.81,0,0,0,2.34.19,1.54,1.54,0,0,0,.47-.77h1.23a2.77,2.77,0,0,1-.95,1.64A2.94,2.94,0,0,1,308.84,190.07Z" transform="translate(-155.89 -118.36)"/><path class="cls-2" d="M313.24,182.68h1.23v3.06h.95l2.33-3.06h1.36l-2.69,3.54,2.91,3.75H317.9l-2.47-3.19h-1V190h-1.23Z" transform="translate(-155.89 -118.36)"/><path class="cls-2" d="M323.09,190.07a2.91,2.91,0,0,1-2.19-.85,3.39,3.39,0,0,1-.81-2.44v-1a3.91,3.91,0,0,1,.21-1.33,2.91,2.91,0,0,1,.61-1,2.53,2.53,0,0,1,.94-.62,3.47,3.47,0,0,1,1.24-.21,3.37,3.37,0,0,1,1.23.21,2.57,2.57,0,0,1,.95.62,2.74,2.74,0,0,1,.6,1,3.91,3.91,0,0,1,.21,1.33v1a3.39,3.39,0,0,1-.81,2.44A2.9,2.9,0,0,1,323.09,190.07Zm0-1.08a1.64,1.64,0,0,0,1.3-.53,2.44,2.44,0,0,0,.48-1.68v-1a2.21,2.21,0,0,0-.48-1.56,1.67,1.67,0,0,0-1.3-.52,1.69,1.69,0,0,0-1.31.52,2.21,2.21,0,0,0-.48,1.56v1a2.44,2.44,0,0,0,.48,1.68A1.66,1.66,0,0,0,323.09,189Z" transform="translate(-155.89 -118.36)"/><path class="cls-2" d="M327.83,182.68H329v5.57l3.4-5.57h1.21V190h-1.17V184.4L329,190h-1.21Zm2.89-.71a2.15,2.15,0,0,1-1.51-.46,1.73,1.73,0,0,1-.49-1.33h1.12a1.08,1.08,0,0,0,.21.75.87.87,0,0,0,.67.23.9.9,0,0,0,.68-.23,1.08,1.08,0,0,0,.21-.75h1.1a1.76,1.76,0,0,1-.48,1.33A2.16,2.16,0,0,1,330.72,182Z" transform="translate(-155.89 -118.36)"/><path class="cls-2" d="M341.39,180.35h3.25a3.69,3.69,0,0,1,2.63.83,3.26,3.26,0,0,1,0,4.47,3.75,3.75,0,0,1-2.64.83h-2V190h-1.29Zm3.25,5a2.4,2.4,0,0,0,1.69-.5,2.22,2.22,0,0,0,0-2.88,2.4,2.4,0,0,0-1.69-.5h-2v3.88Z" transform="translate(-155.89 -118.36)"/><path class="cls-2" d="M352.21,190.07a3.29,3.29,0,0,1-1.2-.22,2.37,2.37,0,0,1-.92-.63,3,3,0,0,1-.59-1,4.35,4.35,0,0,1-.22-1.41v-1a3.29,3.29,0,0,1,.77-2.35,3.14,3.14,0,0,1,4.19,0,3.33,3.33,0,0,1,.76,2.37v.92h-4.51a2.81,2.81,0,0,0,.48,1.8,1.55,1.55,0,0,0,1.24.54,1.8,1.8,0,0,0,.6-.09,1.37,1.37,0,0,0,.43-.24,1.06,1.06,0,0,0,.26-.34,1.47,1.47,0,0,0,.14-.4h1.23a2.58,2.58,0,0,1-.9,1.59A2.77,2.77,0,0,1,352.21,190.07Zm0-6.44a1.57,1.57,0,0,0-1.22.48,2.35,2.35,0,0,0-.45,1.58h3.37a2.4,2.4,0,0,0-.46-1.58A1.58,1.58,0,0,0,352.16,183.63Z" transform="translate(-155.89 -118.36)"/><path class="cls-2" d="M359.36,190.07a3.29,3.29,0,0,1-1.2-.22,2.37,2.37,0,0,1-.92-.63,2.81,2.81,0,0,1-.59-1,4.09,4.09,0,0,1-.22-1.41v-1a3.67,3.67,0,0,1,.22-1.33,2.72,2.72,0,0,1,.59-1,2.45,2.45,0,0,1,.92-.62,3.29,3.29,0,0,1,1.2-.21,3.51,3.51,0,0,1,1.05.15,2.74,2.74,0,0,1,.85.44,2.2,2.2,0,0,1,.6.69,2.12,2.12,0,0,1,.29.9h-1.22a1.47,1.47,0,0,0-.48-.78,1.85,1.85,0,0,0-2.34.19,2.26,2.26,0,0,0-.47,1.56v1a2.5,2.5,0,0,0,.47,1.68,1.81,1.81,0,0,0,2.34.19,1.45,1.45,0,0,0,.46-.77h1.24a2.77,2.77,0,0,1-.95,1.64A3,3,0,0,1,359.36,190.07Z" transform="translate(-155.89 -118.36)"/><path class="cls-2" d="M363.76,182.68h5.64V190h-1.23v-6.21H365V190h-1.23Z" transform="translate(-155.89 -118.36)"/><path class="cls-2" d="M371.71,191.65a3.28,3.28,0,0,0,.67-.07,1.4,1.4,0,0,0,.49-.24,1.82,1.82,0,0,0,.39-.46,5.78,5.78,0,0,0,.35-.74l-2.95-7.46H372l2.19,5.92,2-5.92h1.3l-2.71,7.46a9.64,9.64,0,0,1-.56,1.28,2.56,2.56,0,0,1-.62.79,1.89,1.89,0,0,1-.8.4,4.79,4.79,0,0,1-1.08.11Z" transform="translate(-155.89 -118.36)"/><path class="cls-2" d="M381.43,190.07a3.47,3.47,0,0,1-1.24-.22,2.37,2.37,0,0,1-.94-.69,3.46,3.46,0,0,1-.61-1.18,6,6,0,0,1-.21-1.69v-1c0-.65,0-1.27.08-1.87a5.2,5.2,0,0,1,.4-1.62,2.7,2.7,0,0,1,.9-1.15,2.87,2.87,0,0,1,1.6-.51l.92-.05L383,180a3.22,3.22,0,0,0,.53-.12,4.37,4.37,0,0,0,.46-.18v1.17a1.16,1.16,0,0,1-.27.11,3.3,3.3,0,0,1-.42.1c-.18,0-.41.06-.69.08l-1,.08a2.23,2.23,0,0,0-1,.24,1.73,1.73,0,0,0-.62.58,2.28,2.28,0,0,0-.34.81,5.26,5.26,0,0,0-.14,1,3,3,0,0,1,.83-.82,2.21,2.21,0,0,1,1.22-.34,3.15,3.15,0,0,1,1.16.22,2.54,2.54,0,0,1,.9.6,2.63,2.63,0,0,1,.59,1,3.52,3.52,0,0,1,.21,1.25v1a3.39,3.39,0,0,1-.82,2.44A2.9,2.9,0,0,1,381.43,190.07Zm0-1.08a1.64,1.64,0,0,0,1.3-.53,2.44,2.44,0,0,0,.49-1.68v-1a2,2,0,0,0-.49-1.45,1.72,1.72,0,0,0-1.3-.49,1.74,1.74,0,0,0-1.31.49,2,2,0,0,0-.48,1.45v1a2.44,2.44,0,0,0,.48,1.68A1.66,1.66,0,0,0,381.43,189Z" transform="translate(-155.89 -118.36)"/><path class="cls-2" d="M385.51,188.94a1.47,1.47,0,0,0,.63-.41,1.77,1.77,0,0,0,.37-.68,4.41,4.41,0,0,0,.17-1c0-.39,0-.84,0-1.35v-2.82h5.16V190h-1.23v-6.21h-2.73v1.75a14.8,14.8,0,0,1-.11,1.84,5,5,0,0,1-.39,1.44,2.34,2.34,0,0,1-.73.94,2,2,0,0,1-1.18.34Z" transform="translate(-155.89 -118.36)"/><path class="cls-2" d="M393.94,182.68h1.17v5.57l3.39-5.57h1.21V190h-1.17V184.4L395.15,190h-1.21Z" transform="translate(-155.89 -118.36)"/><path class="cls-2" d="M401.78,182.68H403v3.06H404l2.34-3.06h1.36l-2.7,3.54,2.92,3.75h-1.43L404,186.78h-1V190h-1.22Z" transform="translate(-155.89 -118.36)"/><path class="cls-2" d="M409.13,182.68h1.17v5.57l3.4-5.57h1.21V190h-1.17V184.4l-3.4,5.57h-1.21Z" transform="translate(-155.89 -118.36)"/></svg>