<svg id="_1" data-name="1" xmlns="http://www.w3.org/2000/svg" width="192.02" height="62.17" viewBox="0 0 192.02 62.17"><defs><style>.cls-1{fill:#b92b22;}.cls-2{fill:#1b1b1b;}</style></defs><title>logo_ra_3</title><path class="cls-1" d="M195.21,177.94a1.55,1.55,0,0,1-1-.4L187,170.72l-7.2,6.82a1.51,1.51,0,0,1-1.63.28,1.49,1.49,0,0,1-.9-1.38V159.18H160a1.49,1.49,0,0,1-1.37-.9,1.51,1.51,0,0,1,.28-1.63l6.82-7.21-6.82-7.2a1.51,1.51,0,0,1-.28-1.63,1.49,1.49,0,0,1,1.37-.9h17.27V122.44a1.49,1.49,0,0,1,.9-1.37,1.51,1.51,0,0,1,1.63.28l7.2,6.82,7.21-6.82a1.51,1.51,0,0,1,1.63-.28,1.49,1.49,0,0,1,.9,1.37v17.27H214a1.5,1.5,0,0,1,1.09,2.53l-6.81,7.2,6.81,7.21a1.5,1.5,0,0,1-1.09,2.53H196.71v17.26a1.49,1.49,0,0,1-.9,1.38A1.57,1.57,0,0,1,195.21,177.94ZM187,167.16a1.48,1.48,0,0,1,1,.41l5.71,5.39V157.68a1.51,1.51,0,0,1,1.5-1.5h15.28l-5.39-5.7a1.5,1.5,0,0,1,0-2.07l5.39-5.7H195.21a1.51,1.51,0,0,1-1.5-1.5V125.93L188,131.32a1.49,1.49,0,0,1-2.06,0l-5.7-5.39v15.28a1.51,1.51,0,0,1-1.5,1.5H163.46l5.39,5.7a1.5,1.5,0,0,1,0,2.07l-5.39,5.7h15.28a1.51,1.51,0,0,1,1.5,1.5V173l5.7-5.39A1.51,1.51,0,0,1,187,167.16Z" transform="translate(-155.89 -118.36)"/><path class="cls-2" d="M230.74,128.76H238v1.92h-5v2.56h4.4v1.92H233V138h5V140h-7.28Z" transform="translate(-155.89 -118.36)"/><path class="cls-2" d="M239.49,138.19h.64a3,3,0,0,0,.6-.86,4.26,4.26,0,0,0,.3-1,10.44,10.44,0,0,0,.12-1.24c0-.45,0-1,0-1.55v-2.05h6.31v6.71h1.07V142h-1.94v-2h-5.18v2h-1.94Zm5.84,0v-4.93h-2.11v.54a16.29,16.29,0,0,1-.16,2.46,6.22,6.22,0,0,1-.59,1.93Z" transform="translate(-155.89 -118.36)"/><path class="cls-2" d="M250.53,131.48h1.92v5.7l3.22-5.7h2.1V140h-1.92v-5.69L252.63,140h-2.1Z" transform="translate(-155.89 -118.36)"/><path class="cls-2" d="M260.29,131.48h2.16v3.27h2.92v-3.27h2.15V140h-2.15v-3.44h-2.92V140h-2.16Z" transform="translate(-155.89 -118.36)"/><path class="cls-2" d="M270.05,131.48h2.16v2.9h.67a3.82,3.82,0,0,1,2.61.74,3,3,0,0,1,0,4.12,3.88,3.88,0,0,1-2.61.72h-2.83Zm2.83,6.82A1.68,1.68,0,0,0,274,138a1.11,1.11,0,0,0,.29-.86,1.09,1.09,0,0,0-.29-.87,1.61,1.61,0,0,0-1.09-.27h-.67v2.26Zm4.16-6.82h2.16V140H277Z" transform="translate(-155.89 -118.36)"/><path class="cls-2" d="M281.73,131.48h1.92v5.7l3.22-5.7H289V140H287v-5.69L283.83,140h-2.1Zm3.62-.7a2.68,2.68,0,0,1-2-.61,2.27,2.27,0,0,1-.6-1.68h1.75a1.32,1.32,0,0,0,.2.84.79.79,0,0,0,.63.23.77.77,0,0,0,.62-.23,1.25,1.25,0,0,0,.21-.84h1.74a2.31,2.31,0,0,1-.59,1.68A2.7,2.7,0,0,1,285.35,130.78Z" transform="translate(-155.89 -118.36)"/><path class="cls-2" d="M296.13,131.48h2v1.33a2.92,2.92,0,0,1,.87-1,2.51,2.51,0,0,1,1.47-.39,2.73,2.73,0,0,1,2.16.88,4.22,4.22,0,0,1,.78,2.85v1a6.67,6.67,0,0,1-.2,1.8,3.35,3.35,0,0,1-.58,1.23,2.23,2.23,0,0,1-.93.69,3.17,3.17,0,0,1-1.23.22,2.36,2.36,0,0,1-1.33-.36,2.51,2.51,0,0,1-.85-1v4.38h-2.16Zm3.67,6.79a1.32,1.32,0,0,0,1.06-.47,2.61,2.61,0,0,0,.39-1.63v-1a2.15,2.15,0,0,0-.39-1.45,1.33,1.33,0,0,0-1.06-.44,1.42,1.42,0,0,0-1.12.44,2.15,2.15,0,0,0-.39,1.45v1a2.61,2.61,0,0,0,.39,1.63A1.41,1.41,0,0,0,299.8,138.27Z" transform="translate(-155.89 -118.36)"/><path class="cls-2" d="M309,140.11a4.07,4.07,0,0,1-1.48-.26,2.93,2.93,0,0,1-1.13-.76,3.44,3.44,0,0,1-.72-1.24,5.11,5.11,0,0,1-.26-1.68v-1a3.85,3.85,0,0,1,1-2.8,3.81,3.81,0,0,1,5.1,0,3.89,3.89,0,0,1,.95,2.8v1.16h-4.85a2.71,2.71,0,0,0,.4,1.65,1.26,1.26,0,0,0,1,.45,1.09,1.09,0,0,0,.8-.27,1.2,1.2,0,0,0,.35-.63h2.11a3.11,3.11,0,0,1-1,1.91A3.31,3.31,0,0,1,309,140.11Zm0-7a1.32,1.32,0,0,0-1,.37,2.27,2.27,0,0,0-.4,1.37h2.82a2.2,2.2,0,0,0-.4-1.37A1.31,1.31,0,0,0,308.93,133.07Z" transform="translate(-155.89 -118.36)"/><path class="cls-2" d="M317.91,140.11a4.07,4.07,0,0,1-1.48-.26,2.93,2.93,0,0,1-1.13-.76,3.44,3.44,0,0,1-.72-1.24,5.11,5.11,0,0,1-.26-1.68v-1a3.85,3.85,0,0,1,1-2.8,3.81,3.81,0,0,1,5.1,0,3.89,3.89,0,0,1,.95,2.8v1.16h-4.85a2.71,2.71,0,0,0,.4,1.65,1.26,1.26,0,0,0,1,.45,1.09,1.09,0,0,0,.8-.27,1.2,1.2,0,0,0,.35-.63h2.11a3.11,3.11,0,0,1-1,1.91A3.31,3.31,0,0,1,317.91,140.11Zm0-7a1.32,1.32,0,0,0-1,.37,2.27,2.27,0,0,0-.4,1.37h2.82a2.2,2.2,0,0,0-.4-1.37A1.31,1.31,0,0,0,317.89,133.07Z" transform="translate(-155.89 -118.36)"/><path class="cls-2" d="M326.87,140.11a4.07,4.07,0,0,1-1.48-.26,2.93,2.93,0,0,1-1.13-.76,3.44,3.44,0,0,1-.72-1.24,5.11,5.11,0,0,1-.26-1.68v-1a4.65,4.65,0,0,1,.26-1.59,3.39,3.39,0,0,1,.72-1.19,3,3,0,0,1,1.13-.74,4.07,4.07,0,0,1,1.48-.26,4.27,4.27,0,0,1,1.44.22,3,3,0,0,1,1.05.63,2.74,2.74,0,0,1,.67.94,3.45,3.45,0,0,1,.26,1.17h-2.17a1.66,1.66,0,0,0-.37-.79,1.11,1.11,0,0,0-.88-.33,1.28,1.28,0,0,0-1,.45,2.26,2.26,0,0,0-.39,1.49v1a2.61,2.61,0,0,0,.39,1.63,1.27,1.27,0,0,0,1,.47,1.11,1.11,0,0,0,.88-.33,1.66,1.66,0,0,0,.37-.79h2.17a3.47,3.47,0,0,1-.29,1.19,3,3,0,0,1-.66.94,2.89,2.89,0,0,1-1,.61A4.17,4.17,0,0,1,326.87,140.11Z" transform="translate(-155.89 -118.36)"/><path class="cls-2" d="M334.29,133.26h-2.51v-1.78H339v1.78h-2.51V140h-2.15Z" transform="translate(-155.89 -118.36)"/><path class="cls-2" d="M340.63,131.48h2v1.33a2.73,2.73,0,0,1,.87-1,2.5,2.5,0,0,1,1.46-.39,2.73,2.73,0,0,1,2.16.88,4.17,4.17,0,0,1,.79,2.85v1a7.1,7.1,0,0,1-.2,1.8,3.36,3.36,0,0,1-.59,1.23,2.14,2.14,0,0,1-.92.69,3.26,3.26,0,0,1-1.24.22,2.33,2.33,0,0,1-1.32-.36,2.36,2.36,0,0,1-.85-1v4.38h-2.16Zm3.66,6.79a1.34,1.34,0,0,0,1.07-.47,2.61,2.61,0,0,0,.39-1.63v-1a2.15,2.15,0,0,0-.39-1.45,1.35,1.35,0,0,0-1.07-.44,1.38,1.38,0,0,0-1.11.44,2.15,2.15,0,0,0-.39,1.45v1a2.61,2.61,0,0,0,.39,1.63A1.37,1.37,0,0,0,344.29,138.27Z" transform="translate(-155.89 -118.36)"/><path class="cls-2" d="M233.75,156.11a4.1,4.1,0,0,1-1.48-.26,2.93,2.93,0,0,1-1.13-.76,3.44,3.44,0,0,1-.72-1.24,5.12,5.12,0,0,1-.25-1.68v-1a4.65,4.65,0,0,1,.25-1.59,3.39,3.39,0,0,1,.72-1.19,3,3,0,0,1,1.13-.74,4.1,4.1,0,0,1,1.48-.26,4.27,4.27,0,0,1,1.44.22,3,3,0,0,1,1.06.63,2.85,2.85,0,0,1,.66.94,3.45,3.45,0,0,1,.26,1.17H235a1.66,1.66,0,0,0-.37-.79,1.11,1.11,0,0,0-.88-.33,1.3,1.3,0,0,0-1,.45,2.26,2.26,0,0,0-.38,1.49v1a2.62,2.62,0,0,0,.38,1.63,1.28,1.28,0,0,0,1,.47,1.11,1.11,0,0,0,.88-.33,1.66,1.66,0,0,0,.37-.79h2.17a3.46,3.46,0,0,1-.28,1.19,3,3,0,0,1-.67.94,2.89,2.89,0,0,1-1,.61A4.17,4.17,0,0,1,233.75,156.11Z" transform="translate(-155.89 -118.36)"/><path class="cls-2" d="M242.63,156.11a3.56,3.56,0,0,1-2.68-1,4,4,0,0,1-1-2.92v-1a4.65,4.65,0,0,1,.25-1.59,3.27,3.27,0,0,1,.73-1.19,3,3,0,0,1,1.15-.74,4.3,4.3,0,0,1,1.53-.26,4.38,4.38,0,0,1,1.53.26,3.08,3.08,0,0,1,1.15.74,3.41,3.41,0,0,1,.73,1.19,4.65,4.65,0,0,1,.25,1.59v1a4,4,0,0,1-1,2.92A3.56,3.56,0,0,1,242.63,156.11Zm0-1.84a1.37,1.37,0,0,0,1.11-.47,2.61,2.61,0,0,0,.39-1.63v-1a2.26,2.26,0,0,0-.39-1.49,1.59,1.59,0,0,0-2.22,0,2.26,2.26,0,0,0-.39,1.49v1a2.61,2.61,0,0,0,.39,1.63A1.37,1.37,0,0,0,242.63,154.27Z" transform="translate(-155.89 -118.36)"/><path class="cls-2" d="M248.53,147.48h5.52v1.78h-3.36V156h-2.16Z" transform="translate(-155.89 -118.36)"/><path class="cls-2" d="M255,154.16a1.63,1.63,0,0,0,.68-.36,1.79,1.79,0,0,0,.4-.64,4.08,4.08,0,0,0,.2-.92c0-.35.05-.76.05-1.22v-3.54h6.52V156h-2.16v-6.7h-2.32V151a11.93,11.93,0,0,1-.18,2.2,4.51,4.51,0,0,1-.58,1.59,2.55,2.55,0,0,1-1,1,3.38,3.38,0,0,1-1.57.33Z" transform="translate(-155.89 -118.36)"/><path class="cls-2" d="M267.44,156.06a2.49,2.49,0,0,1-1.81-.64,2.53,2.53,0,0,1-.67-1.89,2.46,2.46,0,0,1,.76-1.94,3.32,3.32,0,0,1,2.25-.67h1.76v-.49a1.46,1.46,0,0,0-.29-1,1.38,1.38,0,0,0-1-.29,1.49,1.49,0,0,0-.94.22.9.9,0,0,0-.3.62h-1.87a2.64,2.64,0,0,1,.76-1.93,3.43,3.43,0,0,1,2.39-.69,3.58,3.58,0,0,1,2.52.74,3.11,3.11,0,0,1,.76,2.33V156h-1.87v-1.32a3.78,3.78,0,0,1-.37.55,1.92,1.92,0,0,1-.49.45,2.58,2.58,0,0,1-.67.31A3.51,3.51,0,0,1,267.44,156.06Zm.66-1.73a1.61,1.61,0,0,0,1.21-.43,1.72,1.72,0,0,0,.42-1.25v-.29h-1.52a1.26,1.26,0,0,0-.93.27,1,1,0,0,0-.27.73C267,154,267.38,154.33,268.1,154.33Z" transform="translate(-155.89 -118.36)"/><path class="cls-2" d="M274.21,147.48h2.16v6.71h2.07v-6.71h2.14v6.71h2.06v-6.71h2.16V156H274.21Z" transform="translate(-155.89 -118.36)"/><path class="cls-2" d="M290.63,156.11a4.07,4.07,0,0,1-1.48-.26,2.93,2.93,0,0,1-1.13-.76,3.44,3.44,0,0,1-.72-1.24,5.11,5.11,0,0,1-.26-1.68v-1a3.85,3.85,0,0,1,1-2.8,3.81,3.81,0,0,1,5.1,0,3.85,3.85,0,0,1,.95,2.8v1.16h-4.84a2.65,2.65,0,0,0,.39,1.65,1.26,1.26,0,0,0,1,.45,1.09,1.09,0,0,0,.8-.27,1.2,1.2,0,0,0,.35-.63h2.11a3.06,3.06,0,0,1-1,1.91A3.31,3.31,0,0,1,290.63,156.11Zm0-7a1.32,1.32,0,0,0-1,.37,2.21,2.21,0,0,0-.39,1.37H292a2.14,2.14,0,0,0-.4-1.37A1.31,1.31,0,0,0,290.61,149.07Z" transform="translate(-155.89 -118.36)"/><path class="cls-2" d="M296.29,147.48h2.16v3.27h2.91v-3.27h2.16V156h-2.16v-3.44h-2.91V156h-2.16Z" transform="translate(-155.89 -118.36)"/><path class="cls-2" d="M306.05,147.48H308v5.7l3.22-5.7h2.09V156h-1.92v-5.69L308.15,156h-2.1Z" transform="translate(-155.89 -118.36)"/><path class="cls-2" d="M315.81,147.48h1.92v5.7l3.22-5.7H323V156h-1.92v-5.69L317.91,156h-2.1Zm3.62-.7a2.68,2.68,0,0,1-2-.61,2.27,2.27,0,0,1-.6-1.68h1.75a1.32,1.32,0,0,0,.2.84.79.79,0,0,0,.63.23.77.77,0,0,0,.62-.23,1.25,1.25,0,0,0,.21-.84H322a2.27,2.27,0,0,1-.6,1.68A2.66,2.66,0,0,1,319.43,146.78Z" transform="translate(-155.89 -118.36)"/><path class="cls-2" d="M203.25,180.53a1.5,1.5,0,0,1-1.5-1.5V165.72a1.5,1.5,0,0,1,1.5-1.5h13.31a1.5,1.5,0,0,1,0,3H204.75V179A1.5,1.5,0,0,1,203.25,180.53Zm-32.55,0a1.5,1.5,0,0,1-1.5-1.5V167.22H157.39a1.5,1.5,0,0,1,0-3H170.7a1.5,1.5,0,0,1,1.5,1.5V179A1.5,1.5,0,0,1,170.7,180.53Zm45.86-45.86H203.25a1.5,1.5,0,0,1-1.5-1.5V119.86a1.5,1.5,0,0,1,3,0v11.81h11.81a1.5,1.5,0,0,1,0,3Zm-45.86,0H157.39a1.5,1.5,0,0,1,0-3H169.2V119.86a1.5,1.5,0,0,1,3,0v13.31A1.5,1.5,0,0,1,170.7,134.67Z" transform="translate(-155.89 -118.36)"/><path class="cls-2" d="M231.83,169.69a2,2,0,0,0,.9-.16.82.82,0,0,0,.42-.46l.09-.21-2.52-5.42h1l2,4.35,1.8-4.35h1l-2.39,5.63a3.15,3.15,0,0,1-.36.69,1.71,1.71,0,0,1-.45.44,1.82,1.82,0,0,1-.62.24,4.16,4.16,0,0,1-.85.07Z" transform="translate(-155.89 -118.36)"/><path class="cls-2" d="M236.41,169.67h.44a1.66,1.66,0,0,0,.36-.53,2.91,2.91,0,0,0,.19-.72,5.59,5.59,0,0,0,.08-.86c0-.31,0-.63,0-1v-1.44h3.65v4.52h.65v2H241v-1.25h-3.68v1.25h-.86Zm3.85,0v-3.75h-1.89v.71a12.76,12.76,0,0,1-.1,1.72,3.47,3.47,0,0,1-.4,1.32Z" transform="translate(-155.89 -118.36)"/><path class="cls-2" d="M243,165.15h.92l1.76,3.3,1.75-3.3h.87v5.29h-.85v-3.85l-1.38,2.65h-.84l-1.38-2.65v3.85H243Z" transform="translate(-155.89 -118.36)"/><path class="cls-2" d="M250,171.67a2.14,2.14,0,0,0,.48,0,1,1,0,0,0,.36-.18,1.1,1.1,0,0,0,.29-.34,2.75,2.75,0,0,0,.25-.54l-2.14-5.41h1l1.59,4.29,1.43-4.29h.95l-2,5.41a7.43,7.43,0,0,1-.41.94,1.78,1.78,0,0,1-.45.57,1.38,1.38,0,0,1-.58.29,3.05,3.05,0,0,1-.79.08Z" transform="translate(-155.89 -118.36)"/><path class="cls-2" d="M255.09,165.15h.79V166a1.86,1.86,0,0,1,.61-.69,1.8,1.8,0,0,1,1-.25,1.92,1.92,0,0,1,.77.15,1.73,1.73,0,0,1,.6.44,2,2,0,0,1,.4.71,3,3,0,0,1,.15,1v.77a3.35,3.35,0,0,1-.15,1,2.24,2.24,0,0,1-.4.75,1.73,1.73,0,0,1-.6.44,1.92,1.92,0,0,1-.77.15,1.57,1.57,0,0,1-.91-.25,1.61,1.61,0,0,1-.56-.63v2.81h-.89Zm2.18,4.58a1.11,1.11,0,0,0,.88-.38,1.8,1.8,0,0,0,.34-1.22v-.77a1.6,1.6,0,0,0-.34-1.12,1.14,1.14,0,0,0-.88-.38,1.23,1.23,0,0,0-.95.38,1.6,1.6,0,0,0-.34,1.12v.77a1.8,1.8,0,0,0,.34,1.22A1.2,1.2,0,0,0,257.27,169.73Z" transform="translate(-155.89 -118.36)"/><path class="cls-2" d="M261.75,165.92h-1.69v-.77h4.26v.77h-1.69v4.52h-.88Z" transform="translate(-155.89 -118.36)"/><path class="cls-2" d="M267.14,170.51a2.5,2.5,0,0,1-.88-.15,1.83,1.83,0,0,1-.67-.46,2.27,2.27,0,0,1-.43-.75,3.22,3.22,0,0,1-.15-1v-.77a2.85,2.85,0,0,1,.15-1,2.34,2.34,0,0,1,.43-.72,1.8,1.8,0,0,1,.67-.45,2.5,2.5,0,0,1,.88-.16,2.33,2.33,0,0,1,.76.12,1.9,1.9,0,0,1,.62.31,1.7,1.7,0,0,1,.65,1.17h-.89a1.06,1.06,0,0,0-.35-.58,1.2,1.2,0,0,0-.79-.24,1.18,1.18,0,0,0-.91.38,1.62,1.62,0,0,0-.34,1.13v.77a1.8,1.8,0,0,0,.34,1.22,1.14,1.14,0,0,0,.91.38,1.1,1.1,0,0,0,.79-.25,1.07,1.07,0,0,0,.34-.56h.9a2,2,0,0,1-.7,1.19A2.07,2.07,0,0,1,267.14,170.51Z" transform="translate(-155.89 -118.36)"/><path class="cls-2" d="M270.34,165.15h.89v2.21h.69l1.7-2.21h1l-2,2.56,2.12,2.73h-1l-1.8-2.31h-.7v2.31h-.89Z" transform="translate(-155.89 -118.36)"/><path class="cls-2" d="M277.5,170.51a2.09,2.09,0,0,1-1.59-.61,2.47,2.47,0,0,1-.59-1.77v-.77a2.85,2.85,0,0,1,.15-1,2.18,2.18,0,0,1,.44-.72,1.8,1.8,0,0,1,.69-.45,2.61,2.61,0,0,1,1.8,0,1.76,1.76,0,0,1,.68.45,2,2,0,0,1,.44.72,2.61,2.61,0,0,1,.16,1v.77a2.47,2.47,0,0,1-.59,1.77A2.09,2.09,0,0,1,277.5,170.51Zm0-.78a1.2,1.2,0,0,0,.95-.38,1.8,1.8,0,0,0,.35-1.22v-.77a1.63,1.63,0,0,0-.35-1.13,1.38,1.38,0,0,0-1.9,0,1.63,1.63,0,0,0-.35,1.13v.77a1.8,1.8,0,0,0,.35,1.22A1.2,1.2,0,0,0,277.5,169.73Z" transform="translate(-155.89 -118.36)"/><path class="cls-2" d="M281,165.15h.85v4l2.47-4h.88v5.29h-.85v-4l-2.47,4H281Zm2.1-.52a1.56,1.56,0,0,1-1.1-.34,1.29,1.29,0,0,1-.35-1h.81a.8.8,0,0,0,.15.55.66.66,0,0,0,.49.16.63.63,0,0,0,.49-.16.75.75,0,0,0,.16-.55h.8a1.29,1.29,0,0,1-.35,1A1.56,1.56,0,0,1,283.05,164.63Z" transform="translate(-155.89 -118.36)"/><path class="cls-2" d="M290.81,163.44h2.36a2.73,2.73,0,0,1,1.92.61,2.38,2.38,0,0,1,0,3.25,2.69,2.69,0,0,1-1.92.6h-1.42v2.54h-.94Zm2.36,3.64a1.78,1.78,0,0,0,1.24-.36,1.63,1.63,0,0,0,0-2.09,1.78,1.78,0,0,0-1.24-.37h-1.42v2.82Z" transform="translate(-155.89 -118.36)"/><path class="cls-2" d="M298.68,170.51a2.41,2.41,0,0,1-.87-.15,1.68,1.68,0,0,1-.67-.46,2.11,2.11,0,0,1-.43-.75,3.21,3.21,0,0,1-.16-1v-.77a2.39,2.39,0,0,1,.56-1.7,2.27,2.27,0,0,1,3.05,0,2.42,2.42,0,0,1,.55,1.72v.67h-3.28a2,2,0,0,0,.35,1.31,1.12,1.12,0,0,0,.9.39,1.42,1.42,0,0,0,.44-.06.87.87,0,0,0,.31-.18.67.67,0,0,0,.19-.25,1,1,0,0,0,.1-.29h.89a1.83,1.83,0,0,1-.65,1.16A2,2,0,0,1,298.68,170.51Zm0-4.68a1.13,1.13,0,0,0-.88.35,1.73,1.73,0,0,0-.33,1.15h2.45a1.73,1.73,0,0,0-.33-1.15A1.17,1.17,0,0,0,298.64,165.83Z" transform="translate(-155.89 -118.36)"/><path class="cls-2" d="M303.88,170.51a2.41,2.41,0,0,1-.87-.15,1.75,1.75,0,0,1-.67-.46,2,2,0,0,1-.43-.75,3,3,0,0,1-.16-1v-.77a2.61,2.61,0,0,1,.16-1,2,2,0,0,1,.43-.72,1.73,1.73,0,0,1,.67-.45,2.41,2.41,0,0,1,.87-.16,2.29,2.29,0,0,1,.76.12,1.81,1.81,0,0,1,.62.31,1.78,1.78,0,0,1,.44.51,1.47,1.47,0,0,1,.21.66H305a1.06,1.06,0,0,0-.35-.58,1.2,1.2,0,0,0-.79-.24,1.18,1.18,0,0,0-.91.38,1.68,1.68,0,0,0-.34,1.13v.77a1.85,1.85,0,0,0,.34,1.22,1.14,1.14,0,0,0,.91.38,1.1,1.1,0,0,0,.79-.25,1,1,0,0,0,.34-.56h.9a2,2,0,0,1-.69,1.19A2.1,2.1,0,0,1,303.88,170.51Z" transform="translate(-155.89 -118.36)"/><path class="cls-2" d="M307.08,165.15h4.1v5.29h-.89v-4.52H308v4.52h-.89Z" transform="translate(-155.89 -118.36)"/><path class="cls-2" d="M312.86,171.67a2.31,2.31,0,0,0,.49,0,1.11,1.11,0,0,0,.36-.18,1.08,1.08,0,0,0,.28-.34,2.75,2.75,0,0,0,.25-.54l-2.14-5.41h1l1.59,4.29,1.43-4.29h.95l-2,5.41a6.22,6.22,0,0,1-.41.94,1.78,1.78,0,0,1-.45.57,1.33,1.33,0,0,1-.58.29,3.05,3.05,0,0,1-.79.08Z" transform="translate(-155.89 -118.36)"/><path class="cls-2" d="M319.93,170.51a2.36,2.36,0,0,1-.9-.16,1.65,1.65,0,0,1-.68-.5,2.25,2.25,0,0,1-.44-.86,4,4,0,0,1-.16-1.23V167q0-.69.06-1.35a3.71,3.71,0,0,1,.29-1.18,2.17,2.17,0,0,1,.65-.84,2.11,2.11,0,0,1,1.17-.37l.67,0,.5,0a1.91,1.91,0,0,0,.39-.08,2.33,2.33,0,0,0,.33-.14v.85a.56.56,0,0,1-.19.09l-.31.07-.5.06-.76.05a1.8,1.8,0,0,0-.71.18,1.51,1.51,0,0,0-.45.42,2.1,2.1,0,0,0-.25.59,5.52,5.52,0,0,0-.1.71,2.15,2.15,0,0,1,.61-.59,1.59,1.59,0,0,1,.88-.25,2.34,2.34,0,0,1,.85.16,2,2,0,0,1,.66.44,2,2,0,0,1,.42.69,2.57,2.57,0,0,1,.15.9v.77a2.43,2.43,0,0,1-.59,1.77A2.09,2.09,0,0,1,319.93,170.51Zm0-.78a1.2,1.2,0,0,0,.95-.38,1.74,1.74,0,0,0,.35-1.22v-.77a1.42,1.42,0,0,0-.35-1.05,1.26,1.26,0,0,0-.95-.36,1.27,1.27,0,0,0-.95.36,1.46,1.46,0,0,0-.35,1.05v.77a1.8,1.8,0,0,0,.35,1.22A1.21,1.21,0,0,0,319.93,169.73Z" transform="translate(-155.89 -118.36)"/><path class="cls-2" d="M322.9,169.69a1,1,0,0,0,.46-.29,1.58,1.58,0,0,0,.27-.5,3.36,3.36,0,0,0,.12-.73c0-.28,0-.61,0-1v-2h3.75v5.29h-.89v-4.52h-2v1.28a9.28,9.28,0,0,1-.08,1.34,3.5,3.5,0,0,1-.28,1.05,1.67,1.67,0,0,1-.53.68,1.46,1.46,0,0,1-.86.24Z" transform="translate(-155.89 -118.36)"/><path class="cls-2" d="M329,165.15h.85v4l2.47-4h.88v5.29h-.85v-4l-2.47,4H329Z" transform="translate(-155.89 -118.36)"/><path class="cls-2" d="M334.73,165.15h.89v2.21h.69l1.7-2.21h1l-2,2.56,2.12,2.73h-1l-1.8-2.31h-.7v2.31h-.89Z" transform="translate(-155.89 -118.36)"/><path class="cls-2" d="M340.08,165.15h.85v4l2.47-4h.88v5.29h-.85v-4l-2.47,4h-.88Z" transform="translate(-155.89 -118.36)"/></svg>